<svg viewBox="0 0 32 32" enable-background="new 0 0 32 32" version="1.1" xml:space="preserve"
     xmlns="http://www.w3.org/2000/svg" xmlns:xlink="http://www.w3.org/1999/xlink" fill="#000000"><g id="SVGRepo_bgCarrier" stroke-width="0"></g>
    <g id="SVGRepo_tracerCarrier" stroke-linecap="round" stroke-linejoin="round"></g>
    <g id="SVGRepo_iconCarrier"> <g id="Home"></g>
        <g id="Print"></g>
        <g id="Mail"></g>
        <g id="Camera"></g>
        <g id="Video"></g>
        <g id="Film"></g>
        <g id="Message"></g>
        <g id="Telephone"></g>
        <g id="User"> <path
            d="M21.6,17c2.1-1.6,3.4-4.2,3.4-7c0-5-4-9-9-9s-9,4-9,9c0,2.8,1.3,5.4,3.4,7C5.2,17.3,1,21.7,1,27v3 c0,0.5,0.5,1,1,1h14h14c0.5,0,1-0.5,1-1v-3C31,21.7,26.8,17.3,21.6,17z"
            fill="#FFC10A"></path>
            <path
                d="M21.6,17c-1.5,1.2-3.5,2-5.6,2s-4.1-0.7-5.6-2C5.2,17.3,1,21.7,1,27v3c0,0.5,0.5,1,1,1h14h14 c0.5,0,1-0.5,1-1v-3C31,21.7,26.8,17.3,21.6,17z"
                fill="#2197F3"></path> </g>
        <g id="File"></g>
        <g id="Folder"></g>
        <g id="Map"></g>
        <g id="Download"></g>
        <g id="Upload"></g>
        <g id="Video_Recorder"></g>
        <g id="Schedule"></g>
        <g id="Cart"></g>
        <g id="Setting"></g>
        <g id="Search"></g>
        <g id="Pencils"></g>
        <g id="Group"></g>
        <g id="Record"></g>
        <g id="Headphone"></g>
        <g id="Music_Player"></g>
        <g id="Sound_On"></g>
        <g id="Sound_Off"></g>
        <g id="Lock"></g>
        <g id="Lock_open"></g>
        <g id="Love"></g>
        <g id="Favorite"></g>
        <g id="Film_1_"></g>
        <g id="Music"></g>
        <g id="Puzzle"></g>
        <g id="Turn_Off"></g>
        <g id="Book"></g>
        <g id="Save"></g>
        <g id="Reload"></g>
        <g id="Trash"></g>
        <g id="Tag"></g>
        <g id="Link"></g>
        <g id="Like"></g>
        <g id="Bad"></g>
        <g id="Gallery"></g>
        <g id="Add"></g>
        <g id="Close"></g>
        <g id="Forward"></g>
        <g id="Back"></g>
        <g id="Buy"></g>
        <g id="Mac"></g>
        <g id="Laptop"></g> </g></svg>
